<svg width="178" height="168" viewBox="0 0 178 168" fill="none" xmlns="http://www.w3.org/2000/svg">
<path d="M52.4224 59.9227C54.6106 54.6715 56.9809 52.5076 57.8926 52.0821C56.8603 46.8373 58.9248 28.624 75.3484 28.0127C91.7719 27.4015 94.0937 43.0905 94.705 48.5918C95.194 52.9929 98.4405 59.7983 100.003 62.6508C149.107 40.6455 141.161 4.37725 150.126 0.913437C159.091 -2.55037 162.147 26.3826 162.759 23.5301C163.248 21.248 165.407 14.429 166.426 11.3048C180.444 12.4458 177.972 33.9214 174.984 44.5166C180.526 55.2748 172.675 67.4729 168.056 72.2271C174.413 89.8314 147.477 105.643 133.214 111.348C137.539 122.921 161.012 129.047 172.208 130.663C149.864 150.277 133.298 140.402 127.808 133.012C99.367 145.159 71.959 135.955 61.8101 129.834C31.0455 102.071 47.068 75.3886 58.9248 65.5178C59.1462 63.0826 59.4561 58.0353 58.9248 57.3269C58.3935 56.6185 54.3685 58.7623 52.4224 59.9227Z" fill="#EB6842"/>
<path d="M25.0378 19.6863C34.1201 48.8808 51.4446 66.5716 58.9715 71.7677L55.1798 122.781C24.6995 124.231 16.884 104.839 16.7863 94.9625C7.52535 84.5981 8.84275 73.0286 10.6591 68.5394C4.24591 40.9406 9.76961 37.5905 13.3331 39.3653C13.4387 17.4212 21.1802 17.1026 25.0378 19.6863Z" fill="#EB6842"/>
<path d="M82.0969 148.159C77.6745 144.502 76.569 138.344 76.5691 135.722C82.5222 134.694 94.4285 133.999 94.4285 139.442C94.4285 146.246 88.2628 147.415 87.5187 148.159C86.7746 148.903 87.5187 156.132 87.5187 157.62C87.5187 159.108 95.2789 158.683 96.7671 158.683C97.9577 158.683 97.2632 161.235 96.7671 162.51C96.2002 162.12 94.9387 161.213 94.4285 160.703C93.9182 160.193 89.6094 160.916 87.5187 161.341C87.2352 161.979 86.4132 163.488 85.3926 164.424C84.117 165.593 84.117 162.51 81.3531 161.341C79.142 160.405 73.8409 161.731 71.4668 162.51C71.9274 161.589 73.0399 159.534 73.8053 158.683C74.7621 157.62 79.7583 159.108 82.0969 158.683C83.9677 158.343 82.8764 151.525 82.0969 148.159Z" fill="#EB6842"/>
<path d="M101.718 148.927C95.5471 148.413 92.3257 141.571 91.4863 138.214C99.1645 135.196 114.349 130.704 113.664 136.875C112.978 143.046 108.628 147.481 106.539 148.927C106.414 151.874 106.368 158.184 107.182 159.855C108.2 161.945 112.485 159.855 115.967 161.57C118.753 162.941 118.338 164.224 117.783 164.694C116.619 163.138 107.419 163.284 106.807 163.284C106.164 163.284 106.271 167.784 104.182 167.409C102.093 167.034 102.629 163.98 101.718 163.284C100.99 162.727 94.6648 164.159 91.5935 164.944C92.2899 160.07 100.379 160.659 101.718 159.855C102.79 159.213 102.164 152.302 101.718 148.927Z" fill="#EB6842"/>
<path d="M83.9954 104.781H91.9496V77.0388H85.0818L78.7185 81.5008V88.1358L83.9954 84.8765V104.781Z" fill="white"/>
</svg>
