<svg width="177" height="168" viewBox="0 0 177 168" fill="none" xmlns="http://www.w3.org/2000/svg">
<path d="M52.0006 59.9227C54.1887 54.6715 56.5591 52.5076 57.4707 52.0821C56.4385 46.8373 58.503 28.624 74.9265 28.0127C91.3501 27.4015 93.6718 43.0905 94.2831 48.5918C94.7721 52.9929 98.0186 59.7983 99.5807 62.6508C148.685 40.6455 140.739 4.37725 149.704 0.913437C158.669 -2.55037 161.726 26.3826 162.337 23.5301C162.826 21.248 164.986 14.429 166.004 11.3048C180.023 12.4458 177.55 33.9214 174.562 44.5166C180.104 55.2748 172.253 67.4729 167.634 72.2271C173.991 89.8314 147.055 105.643 132.793 111.348C137.118 122.921 160.59 129.047 171.786 130.663C149.442 150.277 132.876 140.402 127.386 133.012C98.9452 145.159 71.5371 135.955 61.3882 129.834C30.6236 102.071 46.6461 75.3886 58.503 65.5178C58.7243 63.0826 59.0343 58.0353 58.503 57.3269C57.9717 56.6185 53.9467 58.7623 52.0006 59.9227Z" fill="#90B6E3"/>
<path d="M24.6159 19.6863C33.6983 48.8808 51.0227 66.5716 58.5497 71.7677L54.7579 122.781C24.2776 124.231 16.4621 104.839 16.3644 94.9625C7.10347 84.5981 8.42088 73.0286 10.2372 68.5394C3.82404 40.9406 9.34773 37.5905 12.9112 39.3653C13.0168 17.4212 20.7583 17.1026 24.6159 19.6863Z" fill="#90B6E3"/>
<path d="M81.675 148.159C77.2526 144.502 76.1471 138.344 76.1472 135.722C82.1003 134.694 94.0066 133.999 94.0066 139.442C94.0066 146.246 87.841 147.415 87.0968 148.159C86.3527 148.903 87.0968 156.132 87.0968 157.62C87.0968 159.108 94.857 158.683 96.3453 158.683C97.5359 158.683 96.8413 161.235 96.3453 162.51C95.7783 162.12 94.5168 161.213 94.0066 160.703C93.4963 160.193 89.1875 160.916 87.0968 161.341C86.8134 161.979 85.9913 163.488 84.9708 164.424C83.6951 165.593 83.6951 162.51 80.9312 161.341C78.7201 160.405 73.4191 161.731 71.0449 162.51C71.5055 161.589 72.6181 159.534 73.3835 158.683C74.3402 157.62 79.3365 159.108 81.675 158.683C83.5458 158.343 82.4545 151.525 81.675 148.159Z" fill="#90B6E3"/>
<path d="M101.296 148.927C95.1252 148.413 91.9038 141.571 91.0645 138.214C98.7426 135.196 113.927 130.704 113.242 136.875C112.556 143.046 108.206 147.481 106.117 148.927C105.992 151.874 105.946 158.184 106.76 159.855C107.778 161.945 112.063 159.855 115.545 161.57C118.331 162.941 117.916 164.224 117.361 164.694C116.197 163.138 106.997 163.284 106.385 163.284C105.742 163.284 105.849 167.784 103.76 167.409C101.671 167.034 102.207 163.98 101.296 163.284C100.568 162.727 94.243 164.159 91.1716 164.944C91.868 160.07 99.9568 160.659 101.296 159.855C102.368 159.213 101.743 152.302 101.296 148.927Z" fill="#90B6E3"/>
<path d="M89.6386 104.781H97.2824V99.4656H100.852V93.9947H97.2824V77.0388H87.6986L76.136 96.4779V99.4656H89.6386V104.781ZM83.6245 93.9947L89.8326 83.0141V93.9947H83.6245Z" fill="white"/>
</svg>
