<svg width="211" height="211" viewBox="0 0 211 211" fill="none" xmlns="http://www.w3.org/2000/svg">
<circle cx="105.372" cy="105.429" r="104.878" fill="white"/>
<path d="M61.7176 67.4869C62.1544 65.1281 63.8406 60.0434 67.0905 58.5757C65.7801 51.5429 67.0381 37.084 82.5541 35.5114C98.0701 33.9389 103.609 47.1746 104.439 53.9891C105.968 60.8909 110.1 75.0091 114.399 76.2671C119.771 77.8397 128.29 74.5635 141.263 92.3859C154.237 110.208 161.445 124.099 177.17 127.9C178.437 128.249 179.005 130.154 171.142 134.976C175.03 134.976 182.884 135.474 183.198 137.466C183.591 139.956 162.362 161.448 137.987 140.742C133.764 142.202 128.554 143.596 122.8 144.608C121.516 151.89 119.051 155.391 116.198 156.613C116.049 157.987 116.586 167.453 116.858 168.236C117.13 169.02 121.494 169.228 124.372 169.499C127.249 169.771 127.761 172.121 127.825 172.681C127.876 173.128 127.494 173.07 127.297 172.984C126.498 171.897 120.215 171.487 116.586 171.434C116.152 173.16 114.41 174.846 113.594 175.473C110.875 174.308 111.763 172.144 111.264 171.312C110.764 170.48 101.222 173.531 100.945 172.921C100.723 172.432 101.777 170.535 102.332 169.647C102.905 169.5 103.874 169.093 103.164 168.649C102.454 168.205 98.7256 168.834 96.9503 169.204C96.2106 170.202 94.598 172.188 94.0654 172.144C93.3997 172.089 90.6812 169.259 90.2929 169.204C89.9046 169.148 84.3568 169.537 83.1917 169.647C82.0267 169.758 80.9726 170.48 80.8062 170.369C80.673 170.28 82.3411 167.706 83.1917 166.43C83.6688 166.261 85.6035 166.093 89.5254 166.775C93.4472 167.457 92.7704 159.662 91.9418 155.679C88.5037 153.603 86.2827 147.89 85.3311 143.582C72.8526 139.985 61.7837 132.227 55.8205 117.678C52.1948 108.155 49.504 85.8074 67.7458 72.5978C68.0715 70.1883 68.5791 65.1031 68.0034 64.038C67.4276 62.9729 63.573 65.8935 61.7176 67.4869Z" fill="#EE988D"/>
<path d="M102.732 151.039C100.584 153.737 97.8908 155.513 96.8125 156.063C96.8347 159.146 96.9898 165.321 97.4319 165.355C102.938 165.768 106.035 166.387 106.723 166.8C107.274 167.131 106.953 168.131 106.723 168.59C107.779 168.452 110.013 168.135 110.509 167.97C111.004 167.805 111.174 160.514 111.197 156.889C109.27 156.779 104.75 152.943 102.732 151.039Z" fill="white"/>
<path d="M89.5855 119.535H111.896V113.599H102.584L106.464 109.835C109.568 106.847 111.702 103.976 111.702 100.174C111.702 95.0519 108.093 91.4047 101.303 91.4047C94.5908 91.4047 90.4003 94.9355 90.1287 101.881H97.3456C97.6948 98.5828 98.9365 97.38 100.915 97.38C102.894 97.38 103.864 98.6216 103.864 100.484C103.864 102.812 102.041 105.179 99.2857 108.128L89.5855 118.41V119.535Z" fill="white"/>
</svg>
