<svg width="211" height="211" viewBox="0 0 211 211" fill="none" xmlns="http://www.w3.org/2000/svg">
<circle cx="105.372" cy="105.183" r="104.878" fill="white"/>
<path d="M61.7176 67.2408C62.1544 64.882 63.8406 59.7973 67.0905 58.3296C65.7801 51.2968 67.0381 36.8379 82.5541 35.2653C98.0701 33.6928 103.609 46.9285 104.439 53.743C105.968 60.6448 110.1 74.763 114.399 76.021C119.771 77.5936 128.29 74.3174 141.263 92.1398C154.237 109.962 161.445 123.853 177.17 127.654C178.437 128.003 179.005 129.908 171.142 134.73C175.03 134.73 182.884 135.228 183.198 137.22C183.591 139.71 162.362 161.202 137.987 140.496C133.764 141.956 128.554 143.35 122.8 144.362C121.516 151.643 119.051 155.145 116.198 156.367C116.049 157.741 116.586 167.207 116.858 167.99C117.13 168.774 121.494 168.981 124.372 169.253C127.249 169.525 127.761 171.875 127.825 172.435C127.876 172.882 127.494 172.824 127.297 172.738C126.498 171.651 120.215 171.241 116.586 171.188C116.152 172.914 114.41 174.6 113.594 175.227C110.875 174.062 111.763 171.898 111.264 171.066C110.764 170.234 101.222 173.285 100.945 172.675C100.723 172.186 101.777 170.289 102.332 169.401C102.905 169.253 103.874 168.847 103.164 168.403C102.454 167.959 98.7256 168.588 96.9503 168.958C96.2106 169.956 94.598 171.942 94.0654 171.898C93.3997 171.842 90.6812 169.013 90.2929 168.958C89.9046 168.902 84.3568 169.29 83.1917 169.401C82.0267 169.512 80.9726 170.234 80.8062 170.123C80.673 170.034 82.3411 167.46 83.1917 166.184C83.6688 166.014 85.6035 165.847 89.5254 166.529C93.4472 167.211 92.7704 159.416 91.9418 155.433C88.5037 153.357 86.2827 147.644 85.3311 143.336C72.8526 139.739 61.7837 131.981 55.8205 117.432C52.1948 107.909 49.504 85.5613 67.7458 72.3517C68.0715 69.9422 68.5791 64.857 68.0034 63.7919C67.4276 62.7268 63.573 65.6474 61.7176 67.2408Z" fill="#EE9F68"/>
<path d="M102.732 150.793C100.584 153.491 97.8908 155.267 96.8125 155.817C96.8347 158.9 96.9898 165.074 97.4319 165.109C102.938 165.522 106.035 166.141 106.723 166.554C107.274 166.884 106.953 167.885 106.723 168.344C107.779 168.206 110.013 167.889 110.509 167.724C111.004 167.559 111.174 160.268 111.197 156.643C109.27 156.533 104.75 152.697 102.732 150.793Z" fill="white"/>
<path d="M101.204 119.759C108.538 119.759 112.456 116.305 112.456 111.028C112.456 107.653 110.245 105.402 107.063 104.743C109.973 103.889 111.758 101.871 111.758 98.7674C111.758 94.1501 107.839 91.1625 101.321 91.1625C94.4141 91.1625 90.7668 94.9261 90.4176 100.397H97.4405C97.7509 98.1466 98.9925 96.8662 101.127 96.8662C103.222 96.8662 104.308 97.9526 104.308 99.621C104.308 101.561 103.105 102.686 100.622 102.686H98.5657V107.614H100.777C103.261 107.614 104.425 108.7 104.425 110.873C104.425 112.852 103.222 114.016 100.777 114.016C98.0225 114.016 96.9361 112.464 96.7033 110.175H89.6416C89.8744 116.189 93.4829 119.759 101.204 119.759Z" fill="white"/>
</svg>
