<svg width="211" height="211" viewBox="0 0 211 211" fill="none" xmlns="http://www.w3.org/2000/svg">
<circle cx="105.747" cy="105.671" r="104.878" fill="white"/>
<path d="M62.0926 67.7291C62.5294 65.3703 64.2156 60.2856 67.4655 58.8179C66.1551 51.7851 67.4131 37.3262 82.9291 35.7536C98.4451 34.1811 103.984 47.4168 104.814 54.2313C106.343 61.1331 110.475 75.2513 114.774 76.5093C120.146 78.0819 128.665 74.8057 141.638 92.6281C154.612 110.451 161.82 124.342 177.545 128.142C178.812 128.491 179.38 130.396 171.517 135.218C175.405 135.218 183.259 135.716 183.573 137.708C183.966 140.198 162.737 161.69 138.362 140.985C134.139 142.445 128.929 143.838 123.175 144.85C121.891 152.132 119.426 155.634 116.573 156.856C116.424 158.229 116.961 167.695 117.233 168.479C117.505 169.262 121.869 169.47 124.747 169.742C127.624 170.013 128.136 172.363 128.2 172.923C128.251 173.37 127.869 173.312 127.672 173.227C126.873 172.139 120.59 171.729 116.961 171.676C116.527 173.402 114.785 175.088 113.969 175.715C111.25 174.55 112.138 172.386 111.639 171.554C111.139 170.722 101.597 173.773 101.32 173.163C101.098 172.675 102.152 170.777 102.707 169.89C103.28 169.742 104.249 169.335 103.539 168.891C102.829 168.447 99.1006 169.076 97.3253 169.446C96.5856 170.444 94.973 172.431 94.4404 172.386C93.7747 172.331 91.0562 169.501 90.6679 169.446C90.2796 169.39 84.7318 169.779 83.5667 169.89C82.4017 170.001 81.3476 170.722 81.1812 170.611C81.048 170.522 82.7161 167.948 83.5667 166.672C84.0438 166.503 85.9785 166.335 89.9004 167.017C93.8222 167.699 93.1454 159.904 92.3168 155.921C88.8787 153.845 86.6577 148.132 85.7061 143.824C73.2276 140.227 62.1587 132.469 56.1955 117.92C52.5698 108.397 49.879 86.0495 68.1208 72.84C68.4465 70.4305 68.9541 65.3453 68.3784 64.2802C67.8026 63.2151 63.948 66.1357 62.0926 67.7291Z" fill="#90B6E3"/>
<path d="M103.107 151.281C100.959 153.979 98.2658 155.755 97.1875 156.305C97.2097 159.388 97.3648 165.563 97.8069 165.597C103.313 166.01 106.41 166.629 107.098 167.042C107.649 167.373 107.328 168.373 107.098 168.832C108.154 168.694 110.388 168.378 110.884 168.212C111.379 168.047 111.549 160.756 111.572 157.131C109.645 157.021 105.125 153.185 103.107 151.281Z" fill="white"/>
<path d="M102.639 119.781H110.282V114.466H113.852V108.995H110.282V92.0388H100.699L89.136 111.478V114.466H102.639V119.781ZM96.6245 108.995L102.833 98.0141V108.995H96.6245Z" fill="white"/>
</svg>
