<svg width="211" height="211" viewBox="0 0 211 211" fill="none" xmlns="http://www.w3.org/2000/svg">
<circle cx="105.372" cy="105.671" r="104.878" fill="white"/>
<path d="M61.7176 67.7291C62.1544 65.3703 63.8406 60.2856 67.0905 58.8179C65.7801 51.7851 67.0381 37.3262 82.5541 35.7536C98.0701 34.1811 103.609 47.4168 104.439 54.2313C105.968 61.1331 110.1 75.2513 114.399 76.5093C119.771 78.0819 128.29 74.8057 141.263 92.6281C154.237 110.451 161.445 124.342 177.17 128.142C178.437 128.491 179.005 130.396 171.142 135.218C175.03 135.218 182.884 135.716 183.198 137.708C183.591 140.198 162.362 161.69 137.987 140.985C133.764 142.445 128.554 143.838 122.8 144.85C121.516 152.132 119.051 155.634 116.198 156.856C116.049 158.229 116.586 167.695 116.858 168.479C117.13 169.262 121.494 169.47 124.372 169.742C127.249 170.013 127.761 172.363 127.825 172.923C127.876 173.37 127.494 173.312 127.297 173.227C126.498 172.139 120.215 171.729 116.586 171.676C116.152 173.402 114.41 175.088 113.594 175.715C110.875 174.55 111.763 172.386 111.264 171.554C110.764 170.722 101.222 173.773 100.945 173.163C100.723 172.675 101.777 170.777 102.332 169.89C102.905 169.742 103.874 169.335 103.164 168.891C102.454 168.447 98.7256 169.076 96.9503 169.446C96.2106 170.444 94.598 172.431 94.0654 172.386C93.3997 172.331 90.6812 169.501 90.2929 169.446C89.9046 169.39 84.3568 169.779 83.1917 169.89C82.0267 170.001 80.9726 170.722 80.8062 170.611C80.673 170.522 82.3411 167.948 83.1917 166.672C83.6688 166.503 85.6035 166.335 89.5254 167.017C93.4472 167.699 92.7704 159.904 91.9418 155.921C88.5037 153.845 86.2827 148.132 85.3311 143.824C72.8526 140.227 61.7837 132.469 55.8205 117.92C52.1948 108.397 49.504 86.0495 67.7458 72.84C68.0715 70.4305 68.5791 65.3453 68.0034 64.2802C67.4276 63.2151 63.573 66.1357 61.7176 67.7291Z" fill="#EB6842"/>
<path d="M102.732 151.281C100.584 153.979 97.8908 155.755 96.8125 156.305C96.8347 159.388 96.9898 165.563 97.4319 165.597C102.938 166.01 106.035 166.629 106.723 167.042C107.274 167.373 106.953 168.373 106.723 168.832C107.779 168.694 110.013 168.378 110.509 168.212C111.004 168.047 111.174 160.756 111.197 157.131C109.27 157.021 104.75 153.185 102.732 151.281Z" fill="white"/>
<path d="M98.9954 119.781H106.95V92.0388H100.082L93.7185 96.5008V103.136L98.9954 99.8765V119.781Z" fill="white"/>
</svg>
