<svg width="178" height="168" viewBox="0 0 178 168" fill="none" xmlns="http://www.w3.org/2000/svg">
<path d="M52.4224 60.2626C54.6106 55.0113 56.9809 52.8475 57.8926 52.422C56.8603 47.1772 58.9248 28.9639 75.3484 28.3526C91.7719 27.7413 94.0937 43.4303 94.705 48.9317C95.194 53.3328 98.4405 60.1381 100.003 62.9907C149.107 40.9853 141.161 4.71709 150.126 1.25328C159.091 -2.21053 162.147 26.7225 162.759 23.8699C163.248 21.5879 165.407 14.7689 166.426 11.6446C180.444 12.7856 177.972 34.2613 174.984 44.8565C180.526 55.6147 172.675 67.8127 168.056 72.567C174.413 90.1713 147.477 105.983 133.214 111.688C137.539 123.261 161.012 129.387 172.208 131.003C149.864 150.617 133.298 140.742 127.808 133.352C99.367 145.499 71.959 136.294 61.8101 130.174C31.0455 102.411 47.068 75.7284 58.9248 65.8576C59.1462 63.4225 59.4561 58.3751 58.9248 57.6667C58.3935 56.9583 54.3685 59.1021 52.4224 60.2626Z" fill="#EE988D"/>
<path d="M25.0378 20.0262C34.1201 49.2207 51.4446 66.9115 58.9715 72.1076L55.1798 123.121C24.6995 124.571 16.884 105.179 16.7863 95.3023C7.52535 84.9379 8.84275 73.3685 10.6591 68.8793C4.24591 41.2804 9.76961 37.9303 13.3331 39.7051C13.4387 17.761 21.1802 17.4424 25.0378 20.0262Z" fill="#EE988D"/>
<path d="M82.0969 148.499C77.6745 144.842 76.569 138.684 76.5691 136.061C82.5222 135.034 94.4285 134.339 94.4285 139.782C94.4285 146.586 88.2628 147.755 87.5187 148.499C86.7746 149.243 87.5187 156.472 87.5187 157.96C87.5187 159.448 95.2789 159.023 96.7671 159.023C97.9577 159.023 97.2632 161.574 96.7671 162.85C96.2002 162.46 94.9387 161.553 94.4285 161.043C93.9182 160.533 89.6094 161.255 87.5187 161.681C87.2352 162.318 86.4132 163.828 85.3926 164.763C84.117 165.933 84.117 162.85 81.3531 161.681C79.142 160.745 73.8409 162.07 71.4668 162.85C71.9274 161.929 73.0399 159.873 73.8053 159.023C74.7621 157.96 79.7583 159.448 82.0969 159.023C83.9677 158.683 82.8764 151.865 82.0969 148.499Z" fill="#EE988D"/>
<path d="M101.718 149.267C95.5471 148.753 92.3257 141.911 91.4863 138.554C99.1645 135.536 114.349 131.043 113.664 137.214C112.978 143.386 108.628 147.821 106.539 149.267C106.414 152.214 106.368 158.524 107.182 160.195C108.2 162.284 112.485 160.195 115.967 161.909C118.753 163.281 118.338 164.564 117.783 165.034C116.619 163.478 107.419 163.624 106.807 163.624C106.164 163.624 106.271 168.123 104.182 167.748C102.093 167.373 102.629 164.32 101.718 163.624C100.99 163.067 94.6648 164.499 91.5935 165.284C92.2899 160.41 100.379 160.999 101.718 160.195C102.79 159.552 102.164 152.642 101.718 149.267Z" fill="#EE988D"/>
<path d="M74.5855 110.535H96.8959V104.599H87.5837L91.4638 100.835C94.5678 97.8473 96.7019 94.9761 96.7019 91.1736C96.7019 86.0519 93.0934 82.4047 86.3033 82.4047C79.5908 82.4047 75.4003 85.9355 75.1287 92.8809H82.3456C82.6948 89.5828 83.9365 88.38 85.9153 88.38C87.8941 88.38 88.8642 89.6216 88.8642 91.484C88.8642 93.8121 87.0405 96.1789 84.2857 99.1278L74.5855 109.41V110.535Z" fill="white"/>
</svg>
