<svg width="178" height="168" viewBox="0 0 178 168" fill="none" xmlns="http://www.w3.org/2000/svg">
<path d="M52.4224 59.7196C54.6106 54.4684 56.9809 52.3045 57.8926 51.879C56.8603 46.6342 58.9248 28.4209 75.3484 27.8096C91.7719 27.1984 94.0937 42.8874 94.705 48.3887C95.194 52.7898 98.4405 59.5952 100.003 62.4477C149.107 40.4423 141.161 4.17412 150.126 0.710312C159.091 -2.7535 162.147 26.1795 162.759 23.3269C163.248 21.0449 165.407 14.2259 166.426 11.1016C180.444 12.2427 177.972 33.7183 174.984 44.3135C180.526 55.0717 172.675 67.2698 168.056 72.024C174.413 89.6283 147.477 105.44 133.214 111.145C137.539 122.718 161.012 128.844 172.208 130.46C149.864 150.074 133.298 140.199 127.808 132.809C99.367 144.956 71.959 135.751 61.8101 129.631C31.0455 101.868 47.068 75.1854 58.9248 65.3146C59.1462 62.8795 59.4561 57.8322 58.9248 57.1238C58.3935 56.4154 54.3685 58.5592 52.4224 59.7196Z" fill="#EE9F68"/>
<path d="M25.0378 19.4832C34.1201 48.6777 51.4446 66.3685 58.9715 71.5646L55.1798 122.578C24.6995 124.028 16.884 104.636 16.7863 94.7594C7.52535 84.395 8.84275 72.8255 10.6591 68.3363C4.24591 40.7375 9.76961 37.3873 13.3331 39.1621C13.4387 17.218 21.1802 16.8995 25.0378 19.4832Z" fill="#EE9F68"/>
<path d="M82.0969 147.956C77.6745 144.299 76.569 138.141 76.5691 135.518C82.5222 134.491 94.4285 133.796 94.4285 139.239C94.4285 146.043 88.2628 147.212 87.5187 147.956C86.7746 148.7 87.5187 155.929 87.5187 157.417C87.5187 158.905 95.2789 158.48 96.7671 158.48C97.9577 158.48 97.2632 161.031 96.7671 162.307C96.2002 161.917 94.9387 161.01 94.4285 160.5C93.9182 159.99 89.6094 160.712 87.5187 161.138C87.2352 161.776 86.4132 163.285 85.3926 164.22C84.117 165.39 84.117 162.307 81.3531 161.138C79.142 160.202 73.8409 161.527 71.4668 162.307C71.9274 161.386 73.0399 159.331 73.8053 158.48C74.7621 157.417 79.7583 158.905 82.0969 158.48C83.9677 158.14 82.8764 151.322 82.0969 147.956Z" fill="#EE9F68"/>
<path d="M101.718 148.724C95.5471 148.21 92.3257 141.368 91.4863 138.011C99.1645 134.993 114.349 130.5 113.664 136.672C112.978 142.843 108.628 147.278 106.539 148.724C106.414 151.671 106.368 157.981 107.182 159.652C108.2 161.741 112.485 159.652 115.967 161.366C118.753 162.738 118.338 164.021 117.783 164.491C116.619 162.935 107.419 163.081 106.807 163.081C106.164 163.081 106.271 167.58 104.182 167.205C102.093 166.83 102.629 163.777 101.718 163.081C100.99 162.524 94.6648 163.956 91.5935 164.741C92.2899 159.867 100.379 160.456 101.718 159.652C102.79 159.009 102.164 152.099 101.718 148.724Z" fill="#EE9F68"/>
<path d="M86.2042 107.759C93.5375 107.759 97.4564 104.305 97.4564 99.0284C97.4564 95.6528 95.2447 93.4023 92.0631 92.7427C94.9731 91.8891 96.758 89.8715 96.758 86.7674C96.758 82.1501 92.8391 79.1625 86.3206 79.1625C79.4141 79.1625 75.7668 82.9261 75.4176 88.397H82.4405C82.7509 86.1466 83.9925 84.8662 86.1266 84.8662C88.2218 84.8662 89.3082 85.9526 89.3082 87.621C89.3082 89.5611 88.1054 90.6863 85.6222 90.6863H83.5657V95.614H85.7774C88.2606 95.614 89.4246 96.7004 89.4246 98.8732C89.4246 100.852 88.2218 102.016 85.7774 102.016C83.0225 102.016 81.9361 100.464 81.7033 98.1748H74.6416C74.8744 104.189 78.4829 107.759 86.2042 107.759Z" fill="white"/>
</svg>
