<svg width="211" height="211" viewBox="0 0 211 211" fill="none" xmlns="http://www.w3.org/2000/svg">
<circle cx="105.747" cy="105.429" r="104.878" fill="white"/>
<path d="M62.0926 67.4869C62.5294 65.1281 64.2156 60.0434 67.4655 58.5757C66.1551 51.5429 67.4131 37.084 82.9291 35.5114C98.4451 33.9389 103.984 47.1746 104.814 53.9891C106.343 60.8909 110.475 75.0091 114.774 76.2671C120.146 77.8397 128.665 74.5635 141.638 92.3859C154.612 110.208 161.82 124.099 177.545 127.9C178.812 128.249 179.38 130.154 171.517 134.976C175.405 134.976 183.259 135.474 183.573 137.466C183.966 139.956 162.737 161.448 138.362 140.742C134.139 142.202 128.929 143.596 123.175 144.608C121.891 151.89 119.426 155.391 116.573 156.613C116.424 157.987 116.961 167.453 117.233 168.236C117.505 169.02 121.869 169.228 124.747 169.499C127.624 169.771 128.136 172.121 128.2 172.681C128.251 173.128 127.869 173.07 127.672 172.984C126.873 171.897 120.59 171.487 116.961 171.434C116.527 173.16 114.785 174.846 113.969 175.473C111.25 174.308 112.138 172.144 111.639 171.312C111.139 170.48 101.597 173.531 101.32 172.921C101.098 172.432 102.152 170.535 102.707 169.647C103.28 169.5 104.249 169.093 103.539 168.649C102.829 168.205 99.1006 168.834 97.3253 169.204C96.5856 170.202 94.973 172.188 94.4404 172.144C93.7747 172.089 91.0562 169.259 90.6679 169.204C90.2796 169.148 84.7318 169.537 83.5667 169.647C82.4017 169.758 81.3476 170.48 81.1812 170.369C81.048 170.28 82.7161 167.706 83.5667 166.43C84.0438 166.261 85.9785 166.093 89.9004 166.775C93.8222 167.457 93.1454 159.662 92.3168 155.679C88.8787 153.603 86.6577 147.89 85.7061 143.582C73.2276 139.985 62.1587 132.227 56.1955 117.678C52.5698 108.155 49.879 85.8074 68.1208 72.5978C68.4465 70.1883 68.9541 65.1031 68.3784 64.038C67.8026 62.9729 63.948 65.8935 62.0926 67.4869Z" fill="#6D94C6"/>
<path d="M103.107 151.039C100.959 153.737 98.2658 155.513 97.1875 156.063C97.2097 159.146 97.3648 165.321 97.8069 165.355C103.313 165.768 106.41 166.387 107.098 166.8C107.649 167.131 107.328 168.131 107.098 168.59C108.154 168.452 110.388 168.135 110.884 167.97C111.379 167.805 111.549 160.514 111.572 156.889C109.645 156.779 105.125 152.943 103.107 151.039Z" fill="white"/>
<path d="M101.259 120.001C108.282 120.001 112.511 116.121 112.511 110.223C112.511 104.209 109.174 100.794 104.091 100.794C100.638 100.794 98.6591 102.23 97.6115 103.743L97.7667 97.6128H110.726V91.7927H92.0242L91.4422 108.128H96.1759C97.1071 107.041 98.5039 106.149 100.754 106.149C103.16 106.149 104.518 107.623 104.518 110.107C104.518 112.318 103.47 114.025 101.181 114.025C98.6203 114.025 97.8443 112.745 97.5727 110.805H90.3558C90.5498 116.004 93.8866 120.001 101.259 120.001Z" fill="white"/>
</svg>
