<svg width="177" height="168" viewBox="0 0 177 168" fill="none" xmlns="http://www.w3.org/2000/svg">
<path d="M52.0006 60.2626C54.1887 55.0113 56.5591 52.8475 57.4707 52.422C56.4385 47.1772 58.503 28.9639 74.9265 28.3526C91.3501 27.7413 93.6718 43.4303 94.2831 48.9317C94.7721 53.3328 98.0186 60.1381 99.5807 62.9907C148.685 40.9853 140.739 4.71709 149.704 1.25328C158.669 -2.21053 161.726 26.7225 162.337 23.8699C162.826 21.5879 164.986 14.7689 166.004 11.6446C180.023 12.7856 177.55 34.2613 174.562 44.8565C180.104 55.6147 172.253 67.8127 167.634 72.567C173.991 90.1713 147.055 105.983 132.793 111.688C137.118 123.261 160.59 129.387 171.786 131.003C149.442 150.617 132.876 140.742 127.386 133.352C98.9452 145.499 71.5371 136.294 61.3882 130.174C30.6236 102.411 46.6461 75.7284 58.503 65.8576C58.7243 63.4225 59.0343 58.3751 58.503 57.6667C57.9717 56.9583 53.9467 59.1021 52.0006 60.2626Z" fill="#6D94C6"/>
<path d="M24.6159 20.0262C33.6983 49.2207 51.0227 66.9115 58.5497 72.1076L54.7579 123.121C24.2776 124.571 16.4621 105.179 16.3644 95.3023C7.10347 84.9379 8.42088 73.3685 10.2372 68.8793C3.82404 41.2804 9.34773 37.9303 12.9112 39.7051C13.0168 17.761 20.7583 17.4424 24.6159 20.0262Z" fill="#6D94C6"/>
<path d="M81.675 148.499C77.2526 144.842 76.1471 138.684 76.1472 136.061C82.1003 135.034 94.0066 134.339 94.0066 139.782C94.0066 146.586 87.841 147.755 87.0968 148.499C86.3527 149.243 87.0968 156.472 87.0968 157.96C87.0968 159.448 94.857 159.023 96.3453 159.023C97.5359 159.023 96.8413 161.574 96.3453 162.85C95.7783 162.46 94.5168 161.553 94.0066 161.043C93.4963 160.533 89.1875 161.255 87.0968 161.681C86.8134 162.318 85.9913 163.828 84.9708 164.763C83.6951 165.933 83.6951 162.85 80.9312 161.681C78.7201 160.745 73.4191 162.07 71.0449 162.85C71.5055 161.929 72.6181 159.873 73.3835 159.023C74.3402 157.96 79.3365 159.448 81.675 159.023C83.5458 158.683 82.4545 151.865 81.675 148.499Z" fill="#6D94C6"/>
<path d="M101.296 149.267C95.1252 148.753 91.9038 141.911 91.0645 138.554C98.7426 135.536 113.927 131.043 113.242 137.214C112.556 143.386 108.206 147.821 106.117 149.267C105.992 152.214 105.946 158.524 106.76 160.195C107.778 162.284 112.063 160.195 115.545 161.909C118.331 163.281 117.916 164.564 117.361 165.034C116.197 163.478 106.997 163.624 106.385 163.624C105.742 163.624 105.849 168.123 103.76 167.748C101.671 167.373 102.207 164.32 101.296 163.624C100.568 163.067 94.243 164.499 91.1716 165.284C91.868 160.41 99.9568 160.999 101.296 160.195C102.368 159.552 101.743 152.642 101.296 149.267Z" fill="#6D94C6"/>
<path d="M88.2588 111.001C95.2817 111.001 99.511 107.121 99.511 101.223C99.511 95.2089 96.1741 91.7944 91.0912 91.7944C87.638 91.7944 85.6591 93.2301 84.6115 94.7433L84.7667 88.6128H97.7261V82.7927H79.0242L78.4422 99.1278H83.1759C84.1071 98.0413 85.5039 97.1489 87.7544 97.1489C90.16 97.1489 91.518 98.6234 91.518 101.107C91.518 103.318 90.4704 105.025 88.1812 105.025C85.6203 105.025 84.8443 103.745 84.5727 101.805H77.3558C77.5498 107.004 80.8866 111.001 88.2588 111.001Z" fill="white"/>
</svg>
