<svg width="177" height="168" viewBox="0 0 177 168" fill="none" xmlns="http://www.w3.org/2000/svg">
<path d="M52.0006 59.7196C54.1887 54.4684 56.5591 52.3045 57.4707 51.879C56.4385 46.6342 58.503 28.4209 74.9265 27.8096C91.3501 27.1984 93.6718 42.8874 94.2831 48.3887C94.7721 52.7898 98.0186 59.5952 99.5807 62.4477C148.685 40.4423 140.739 4.17412 149.704 0.710312C158.669 -2.7535 161.726 26.1795 162.337 23.3269C162.826 21.0449 164.986 14.2259 166.004 11.1016C180.023 12.2427 177.55 33.7183 174.562 44.3135C180.104 55.0717 172.253 67.2698 167.634 72.024C173.991 89.6283 147.055 105.44 132.793 111.145C137.118 122.718 160.59 128.844 171.786 130.46C149.442 150.074 132.876 140.199 127.386 132.809C98.9452 144.956 71.5371 135.751 61.3882 129.631C30.6236 101.868 46.6461 75.1854 58.503 65.3146C58.7243 62.8795 59.0343 57.8322 58.503 57.1238C57.9717 56.4154 53.9467 58.5592 52.0006 59.7196Z" fill="#426791"/>
<path d="M24.6159 19.4832C33.6983 48.6777 51.0227 66.3685 58.5497 71.5646L54.7579 122.578C24.2776 124.028 16.4621 104.636 16.3644 94.7594C7.10347 84.395 8.42088 72.8255 10.2372 68.3363C3.82404 40.7375 9.34773 37.3873 12.9112 39.1621C13.0168 17.218 20.7583 16.8995 24.6159 19.4832Z" fill="#426791"/>
<path d="M81.675 147.956C77.2526 144.299 76.1471 138.141 76.1472 135.518C82.1003 134.491 94.0066 133.796 94.0066 139.239C94.0066 146.043 87.841 147.212 87.0968 147.956C86.3527 148.7 87.0968 155.929 87.0968 157.417C87.0968 158.905 94.857 158.48 96.3453 158.48C97.5359 158.48 96.8413 161.031 96.3453 162.307C95.7783 161.917 94.5168 161.01 94.0066 160.5C93.4963 159.99 89.1875 160.712 87.0968 161.138C86.8134 161.776 85.9913 163.285 84.9708 164.22C83.6951 165.39 83.6951 162.307 80.9312 161.138C78.7201 160.202 73.4191 161.527 71.0449 162.307C71.5055 161.386 72.6181 159.331 73.3835 158.48C74.3402 157.417 79.3365 158.905 81.675 158.48C83.5458 158.14 82.4545 151.322 81.675 147.956Z" fill="#426791"/>
<path d="M101.296 148.724C95.1252 148.21 91.9038 141.368 91.0645 138.011C98.7426 134.993 113.927 130.5 113.242 136.672C112.556 142.843 108.206 147.278 106.117 148.724C105.992 151.671 105.946 157.981 106.76 159.652C107.778 161.741 112.063 159.652 115.545 161.366C118.331 162.738 117.916 164.021 117.361 164.491C116.197 162.935 106.997 163.081 106.385 163.081C105.742 163.081 105.849 167.58 103.76 167.205C101.671 166.83 102.207 163.777 101.296 163.081C100.568 162.524 94.243 163.956 91.1716 164.741C91.868 159.867 99.9568 160.456 101.296 159.652C102.368 159.009 101.743 152.099 101.296 148.724Z" fill="#426791"/>
<path d="M89.1324 107.759C96.1941 107.759 100.462 103.879 100.462 98.0196C100.462 92.1995 96.3105 89.1343 91.2664 89.1343C87.852 89.1343 86.0283 90.4535 84.7867 92.3547C84.9419 87.6598 86.6104 85.0214 89.6368 85.0214C91.6156 85.0214 92.3141 85.9914 92.5857 87.3494H99.8802C99.2982 81.9173 95.6121 79.1625 89.3652 79.1625C82.3035 79.1625 76.9102 84.4006 76.9102 93.4411V94.1783C76.9102 102.094 80.2858 107.759 89.1324 107.759ZM89.0548 102.132C86.7656 102.132 85.2911 100.464 85.2911 98.0196C85.2911 95.808 86.7656 94.1007 89.0548 94.1007C91.344 94.1007 92.7409 95.7692 92.7409 98.0972C92.7409 100.464 91.2664 102.132 89.0548 102.132Z" fill="white"/>
</svg>
