<svg width="211" height="211" viewBox="0 0 211 211" fill="none" xmlns="http://www.w3.org/2000/svg">
<circle cx="105.747" cy="105.183" r="104.878" fill="white"/>
<path d="M62.0926 67.2408C62.5294 64.882 64.2156 59.7973 67.4655 58.3296C66.1551 51.2968 67.4131 36.8379 82.9291 35.2653C98.4451 33.6928 103.984 46.9285 104.814 53.743C106.343 60.6448 110.475 74.763 114.774 76.021C120.146 77.5936 128.665 74.3174 141.638 92.1398C154.612 109.962 161.82 123.853 177.545 127.654C178.812 128.003 179.38 129.908 171.517 134.73C175.405 134.73 183.259 135.228 183.573 137.22C183.966 139.71 162.737 161.202 138.362 140.496C134.139 141.956 128.929 143.35 123.175 144.362C121.891 151.643 119.426 155.145 116.573 156.367C116.424 157.741 116.961 167.207 117.233 167.99C117.505 168.774 121.869 168.981 124.747 169.253C127.624 169.525 128.136 171.875 128.2 172.435C128.251 172.882 127.869 172.824 127.672 172.738C126.873 171.651 120.59 171.241 116.961 171.188C116.527 172.914 114.785 174.6 113.969 175.227C111.25 174.062 112.138 171.898 111.639 171.066C111.139 170.234 101.597 173.285 101.32 172.675C101.098 172.186 102.152 170.289 102.707 169.401C103.28 169.253 104.249 168.847 103.539 168.403C102.829 167.959 99.1006 168.588 97.3253 168.958C96.5856 169.956 94.973 171.942 94.4404 171.898C93.7747 171.842 91.0562 169.013 90.6679 168.958C90.2796 168.902 84.7318 169.29 83.5667 169.401C82.4017 169.512 81.3476 170.234 81.1812 170.123C81.048 170.034 82.7161 167.46 83.5667 166.184C84.0438 166.014 85.9785 165.847 89.9004 166.529C93.8222 167.211 93.1454 159.416 92.3168 155.433C88.8787 153.357 86.6577 147.644 85.7061 143.336C73.2276 139.739 62.1587 131.981 56.1955 117.432C52.5698 107.909 49.879 85.5613 68.1208 72.3517C68.4465 69.9422 68.9541 64.857 68.3784 63.7919C67.8026 62.7268 63.948 65.6474 62.0926 67.2408Z" fill="#426791"/>
<path d="M103.107 150.793C100.959 153.491 98.2658 155.267 97.1875 155.817C97.2097 158.9 97.3648 165.074 97.8069 165.109C103.313 165.522 106.41 166.141 107.098 166.554C107.649 166.884 107.328 167.885 107.098 168.344C108.154 168.206 110.388 167.889 110.884 167.724C111.379 167.559 111.549 160.268 111.572 156.643C109.645 156.533 105.125 152.697 103.107 150.793Z" fill="white"/>
<path d="M102.132 119.759C109.194 119.759 113.462 115.879 113.462 110.02C113.462 104.2 109.311 101.134 104.266 101.134C100.852 101.134 99.0283 102.453 97.7867 104.355C97.9419 99.6598 99.6104 97.0214 102.637 97.0214C104.616 97.0214 105.314 97.9914 105.586 99.3494H112.88C112.298 93.9173 108.612 91.1625 102.365 91.1625C95.3035 91.1625 89.9102 96.4006 89.9102 105.441V106.178C89.9102 114.094 93.2858 119.759 102.132 119.759ZM102.055 114.132C99.7656 114.132 98.2911 112.464 98.2911 110.02C98.2911 107.808 99.7656 106.101 102.055 106.101C104.344 106.101 105.741 107.769 105.741 110.097C105.741 112.464 104.266 114.132 102.055 114.132Z" fill="white"/>
</svg>
