<svg xmlns="http://www.w3.org/2000/svg" viewBox="0 0 265.7 218.94"><defs><style>.cls-1{fill:#231f20;}</style></defs><g id="Layer_2" data-name="Layer 2"><g id="Layer_1-2" data-name="Layer 1"><path class="cls-1" d="M98.07,33.91a1.19,1.19,0,0,0-1.77-.16,47.35,47.35,0,0,1-3.84,3.39A8.18,8.18,0,0,1,85.65,39c-3-.7-5-3.44-4.9-7.1a32.56,32.56,0,0,1,8.41-21.43A5.11,5.11,0,0,1,91,9a1.82,1.82,0,0,1,.85-.07,1.21,1.21,0,0,1,1.05,1.33,1.2,1.2,0,0,1-.29.76c-5.32,4.47-7.48,10.59-8.8,17.06A15.31,15.31,0,0,0,84,34c.38,2,2.07,2.71,4,2.22,4-1,7.75-5.42,8.17-9.45a6.06,6.06,0,0,1,1-2.76A2,2,0,0,1,99,23.62a2,2,0,0,1,1,1.48,3.88,3.88,0,0,1-.38,2c-1.23,2.78.19,4.81,1.93,6.65a5.52,5.52,0,0,0,6.57,1.16,12.4,12.4,0,0,0,7.7-10.58A16.87,16.87,0,0,0,113.4,13.1c-.7-1.12-1.92-1.89-2.79-2.91-.44-.52-1-1.36-.86-1.88.29-1,1.3-.89,2.11-.51,2.52,1.15,3.94,3.32,4.94,5.73,2,5,2.73,10.09.73,15.24a14.61,14.61,0,0,1-9.32,9,8.61,8.61,0,0,1-9.67-3.26Z"/><path class="cls-1" d="M118.55,31.2c.36-4,3.08-7.26,6.51-7.7A3.34,3.34,0,0,1,128.61,25a3.28,3.28,0,0,1-.46,4,7.19,7.19,0,0,1-5.22,2.58c-1.61.15-1.89.6-1.48,2.13a4.07,4.07,0,0,0,4.24,3.1c2.95,0,5.51-1.27,8-2.68,1.59-.92,3.09-2,4.62-3,.8-.53,1.67-1,2.39-.06s0,1.67-.72,2.22c-3.58,2.61-7.29,5-11.69,6C122.39,40.67,118,37.05,118.55,31.2Zm4.7-2.62A2.52,2.52,0,0,0,125.89,27a.44.44,0,0,0-.36-.59,2.67,2.67,0,0,0-2.66,1.45A.45.45,0,0,0,123.25,28.58Z"/><path class="cls-1" d="M167.88,10.11c.27,1.61-.45,2.9-.73,4.28-1.28,6.23-2.75,12.41-5.74,18.09a29.05,29.05,0,0,1-5.14,7.5c-1.44,1.41-3.07,2.5-5.27,2.26a5.32,5.32,0,0,1-3.81-2.5,1.24,1.24,0,0,1,.15-1.82,1.3,1.3,0,0,1,1.82.17c.25.23.46.5.7.73a2.31,2.31,0,0,0,2.95.48,9,9,0,0,0,3-2.79,44.32,44.32,0,0,0,5.94-11.67,101.68,101.68,0,0,0,2.91-11.52c.23-1,.56-2.07.88-3.25l-7.2-.49a14.72,14.72,0,0,0-4.68.32,4.61,4.61,0,0,0-3,2.12c-.44.75-1.12,1.21-2,.68s-.67-1.35-.25-2.09c1.28-2.25,3.39-3.17,5.82-3.51a39.13,39.13,0,0,1,8.72.13A35.71,35.71,0,0,0,173.24,7a17,17,0,0,0,4.12-1.42,7.5,7.5,0,0,0,3.95-4.27c.3-.86.74-1.51,1.78-1.22.81.23,1.08,1.22.68,2.31-1,2.86-3.2,4.56-5.84,5.82a21.8,21.8,0,0,1-8.79,1.89C168.77,10.11,168.4,10.11,167.88,10.11Z"/><path class="cls-1" d="M175.14,28.18a7,7,0,0,0-3.25,4c-.91,2.6-1.8,5.22-2.67,7.84-.28.87-.73,1.57-1.72,1.34s-1.18-1.12-1-2.05a30.09,30.09,0,0,1,2.43-7.43,55.06,55.06,0,0,0,3.47-11.55c.51-2.29.9-4.62,1.32-6.93a3.06,3.06,0,0,1,.45-1.14,1.13,1.13,0,0,1,1.34-.55,1.21,1.21,0,0,1,.92,1.15,4.24,4.24,0,0,1-.1,1c-.74,3.73-1.35,7.5-2.3,11.19-.05.18-.14.35,0,.55a.82.82,0,0,0,.28.07c2.6-.26,3.64.69,3.74,3.29a53.51,53.51,0,0,1-.56,5.79c-.06.76-.3,1.56.24,2.28a4.29,4.29,0,0,0,2-.92c.71-.41,1.45-.58,2,.21s.14,1.48-.57,2a7.5,7.5,0,0,1-2.26,1.22,2.9,2.9,0,0,1-4-2.59c-.32-2.15.31-4.23.5-6.34A3.79,3.79,0,0,0,175.14,28.18Z"/><path class="cls-1" d="M186.32,33.12a3.76,3.76,0,0,0,3.91,3,6,6,0,0,0,4.12-1.78,24.17,24.17,0,0,0,2.36-2.69A1.28,1.28,0,1,1,198.86,33a10.56,10.56,0,0,1-9,5.7,6.9,6.9,0,0,1-6.34-5.11,7.81,7.81,0,0,1,.69-5.58,7.54,7.54,0,0,1,3.36-3.92,3.69,3.69,0,0,1,4.38.21,3.54,3.54,0,0,1,.58,4.24A7.68,7.68,0,0,1,186.32,33.12Zm-.14-2.67a5.1,5.1,0,0,0,3.89-2.83c.2-.39.43-.88,0-1.24s-.93-.17-1.34.1A6.2,6.2,0,0,0,186.18,30.45Z"/><path class="cls-1" d="M64.43,121.29a21.24,21.24,0,0,0-7.73,3.07A38.38,38.38,0,0,1,42.29,131c-1.61.33-1.86,1.43-2.21,2.75-2.6,10-5.76,19.67-12,28.05-3.42,4.56-7.15,8.84-12.22,11.65-6.29,3.47-12.91,1-15.38-5.52-.75-2-.71-3.82,1.32-4.92s3.56,0,4.74,1.74c2.7,3.94,4.05,4.25,7.85,1.3,7.9-6.13,12.81-14.37,15.84-23.71,3.93-12.12,6.47-24.59,8.75-37.11S43.8,80.23,50.19,69A31.78,31.78,0,0,1,58.66,59c2.67-2,5.09-2.08,6.29-.1,1.5,2.48-.08,4.07-1.9,5.52a19.83,19.83,0,0,0-6.36,7.79c3.58-1,6.68-.8,9.57,1.08a14.41,14.41,0,0,1,5.6,7.53c2,5.44,2.19,11.11,1.85,16.79-.91,15.12-3.59,30.06-4.8,45.15-.52,6.54-1.13,13.09,0,19.65,1.51,8.72,6.13,12.4,14.92,11.72.6,0,1.18-.21,1.78-.23,2-.08,3.56.71,4,2.79a3.2,3.2,0,0,1-2.77,4c-9.21,1.77-19-.48-23.21-11.3-2.34-6.09-2.6-12.45-2.21-18.82C62,140.87,62.86,131.19,64.43,121.29Zm-21.86,2a7.83,7.83,0,0,0,5.35-1.66,58.58,58.58,0,0,1,15.56-7.72,2.73,2.73,0,0,0,2.14-2.8c.37-5.85,1-11.7,1.18-17.56.09-3.94-.26-8-2.12-11.62-2-3.94-6.42-3.15-8.21-1.91a16.07,16.07,0,0,0-5.58,6.19A8.77,8.77,0,0,0,50,87.93C46.7,99.42,45.25,111.27,42.57,123.26Z"/><path class="cls-1" d="M257.16,143.45C249.05,146,244,143.65,241,136a27.85,27.85,0,0,1-.66-18.16c.59-2.16,1.9-3.71,4.27-3.2,2.62.57,3.1,2.75,2.44,5A21.41,21.41,0,0,0,247,132c.66,2.29,1.29,5.18,4.48,5.24,2.92.05,3.63-2.6,4.52-4.69,1.65-3.84.75-7.85.48-11.8-.1-1.59-.35-3.18-.31-4.76.05-1.81.83-3.37,2.76-3.8a3.58,3.58,0,0,1,4.32,2.35,20.43,20.43,0,0,1,1.28,9.38c-.74,14.73.16,29.43.84,44.14.45,9.66.74,19.3-2,28.74-3.26,11.2-11,21.09-27.35,22.1s-32-10.31-34.85-26.1c-2.08-11.68,2.09-21.49,10.61-29.54a12,12,0,0,1,2.47-1.65c1.78-1,3.55-1,4.78.79s.77,3.48-.87,4.74a25.23,25.23,0,0,0-6.74,7.48c-4,6.9-5.44,14.32-2,21.59,4.74,10.18,13.36,15.17,24.56,15.62,10.25.41,17.61-4.27,21.52-13.76a43.74,43.74,0,0,0,3.16-17.52c-.19-11.84-.72-23.66-1.13-35.49A10.43,10.43,0,0,0,257.16,143.45Z"/><path class="cls-1" d="M162.92,156.66c.39,2.71,1.05,5.5-2.25,6.09s-4.13-2.1-4.9-4.53c-2.78-8.73-3.17-17.78-3.14-26.81.05-19.16,3.17-38,5.67-57a11.69,11.69,0,0,1,.68-2.58c.68-1.79,1.94-2.81,3.93-2.34a3.2,3.2,0,0,1,2.55,3.82c-.57,4.85-1.27,9.67-1.89,14.5-.83,6.41-1.66,12.83-2.44,19.24a5.09,5.09,0,0,0,0,2.92c1,.4,1.46-.47,2.08-.83,4.43-2.58,8.77-1.74,11.8,2.4,2.3,3.14,3.22,6.78,3.75,10.56a45.06,45.06,0,0,1-4.47,26.69C172.11,153.26,168.79,156.65,162.92,156.66Zm9-23.88c.28-5.22.64-10.79-2-16-1.17-2.3-2.47-2.51-4.08-.63a29.88,29.88,0,0,0-5.95,12.44c-1.21,4.91-.31,10.28.3,15.4a6.2,6.2,0,0,0,3.67,5.07c2.08.71,3-1.72,4-3.27C170.29,141.92,171.18,137.55,172,132.78Z"/><path class="cls-1" d="M228.67,149c-2.36,1.94-5,3.51-8.3,3.13-4.31-.49-7.15-3.13-8.65-6.92-3.84-9.67-3.2-19.07,2.71-27.81a11.94,11.94,0,0,1,9.79-5.47c2.19-.07,2.67-1,2.73-2.88.17-5.86.42-11.73.68-17.59.27-6.27.69-12.52,3.5-18.32,1.35-2.77,3.38-4,5.31-2.86,2.48,1.42,2.14,3.47,1.08,5.68-2.57,5.35-2.64,11.18-2.93,16.92-.57,11.12-.91,22.25-1.4,33.37-.23,5.18.59,10.28,1.17,15.38a11.33,11.33,0,0,0,6.4,9.47c2,1,3.27,2.6,2.19,4.83s-3.24,2.15-5.2,1.35a15.11,15.11,0,0,1-7.1-5.91C230.13,150.56,229.8,149.57,228.67,149Zm-2.47-30.2a6.85,6.85,0,0,0-6.69,3.55A22.35,22.35,0,0,0,218,142.1c.53,1.4,1.4,2.89,3.08,2.87s2.68-1.41,3.66-2.91c1.88-2.88,1.67-5.85,1.52-9C226.07,128.34,226.21,123.61,226.2,118.8Z"/><path class="cls-1" d="M123.67,119.64c-1.9.73-3.66,1.38-5.39,2.1-2.09.87-4.11.88-5.09-1.38s.24-4,2.42-5c1.9-.87,3.84-1.64,5.79-2.39,2.31-.9,3.23-2.39,3.27-5,.17-11.13-.58-22.28.31-33.4A79.87,79.87,0,0,1,126.16,66c.42-2.21,1.86-3.69,4.23-3.2s2.94,2.44,2.55,4.44c-2.49,12.54-.75,25.19-1.34,37.75,1.23.54,1.73-.48,2.43-.88,1.8-1,3.65-1.56,5.07.37s.64,3.81-1,5.24-3.44,2.7-5.22,4a3.47,3.47,0,0,0-1.61,3c-.29,12.63-2.36,25.18-1.72,37.85.21,4.28.79,8.52,2.82,12.39s4.35,4.29,7.56,1.34a59.35,59.35,0,0,0,4.37-4.86c1.35-1.56,3-2.21,4.74-1s1.92,3.13.72,5a25.31,25.31,0,0,1-7.32,7.75c-5.18,3.44-11.06,2.41-14.74-2.64-4.18-5.73-5-12.44-5.21-19.25-.26-10.07.73-20.08,1.51-30.1C124,122.12,124.4,121,123.67,119.64Z"/><path class="cls-1" d="M86.5,141.75c-.94,5.72-.59,11.53-1.23,17.26-.28,2.4-1,4.38-3.82,4.39-2.22,0-3.48-2.08-3.24-5.07.39-4.76.75-9.51,1.15-14.26.07-.81.14-1.48.23-2.4.39-4.27.48-5.38.68-8.06.45-4,.82-5.5,1.25-9.65.34-3.18,3.6-4.15,6.09-2.2a3,3,0,0,0,2.69.66c8.13-1.66,13.6,2.5,14,11,.25,5.06.08,10.13,0,15.2,0,1.42-.11,2.86,1.08,3.74,1.43,1.06,2.87.16,4.15-.6s2.43-1.73,3.7-2.5c1.52-.91,3.09-.94,4.33.45a3.23,3.23,0,0,1,0,4.62c-3.1,3.25-6.81,5.55-11.48,5.58-4,0-7.34-3.29-8.29-8.06-.79-3.94-.49-7.93-.36-11.9a28.07,28.07,0,0,0-.14-6.54c-.42-2.09-.75-4.22-3.56-4.35-2.65-.13-5.91,2.1-6.33,4.44-.24,1.36-.26,2.77-.4,4.15S86.66,140.37,86.5,141.75Z"/><path class="cls-1" d="M204.93,135.72c-.78,5.92-2,11.22-5.35,15.77-1.87,2.57-4.16,4.42-7.68,4.32-4.33-.13-6.11-3.13-7.5-6.44-1.6-3.8-1.86-7.88-1.79-12a38.85,38.85,0,0,1,4.08-17.23,14.88,14.88,0,0,1,3.58-4.71c4.23-3.58,9.32-2.67,12,2.16C205.63,123.45,205.45,129.79,204.93,135.72Zm-9.32-15c-1.74.51-2.29,2-3,3.25a25.82,25.82,0,0,0-2.41,7.34,29.26,29.26,0,0,0,.65,15.28c.29.86.61,1.79,1.69,1.85s1-.87,1.45-1.52c4.1-6.24,4.61-13.15,3.88-20.28C197.68,124.45,197.34,122.28,195.61,120.68Z"/><path class="cls-1" d="M138.64,120.31a8.9,8.9,0,0,1,.86-3.15c.92-1.52,2.15-2.34,4-1.87a3.19,3.19,0,0,1,2.53,3.54c-.09,6-.16,11.9-.28,17.84,0,2.17-.18,4,3,4.22,2.25.14,3,2.91,1.75,4.93-1.76,2.77-6,3.16-8.64.8a8.85,8.85,0,0,1-2.79-5.78C138.19,134,139.17,127.15,138.64,120.31Z"/><path class="cls-1" d="M150.25,104c-.37,1.82-1.37,3.25-3.68,3.2s-3.57-1.79-3.43-4.26c.16-2.64,1.81-4.38,4-4.15C149.07,99,150.48,101.22,150.25,104Z"/></g></g></svg>